<svg xmlns="http://www.w3.org/2000/svg" viewBox="0 0 48 48"><path d="M24 47.5C11.02 47.5.5 36.98.5 24S11.02.5 24 .5 47.5 11.02 47.5 24 36.98 47.5 24 47.5" style="stroke-width:0;fill:#e5311f"/><path d="M36.49 11.23c-9.08-8.54-23.88-5.47-28.85 5.95-3.79 8.58-.16 18.8 8 23.32.49.25 1.06.48 1.59.66l.84.24c.28.06.57.11.85.16 2.27.34 4.66-.1 6.65-1.22.82-.47 1.53-1.01 2.15-1.61 5.02.87 9.66-3.67 8.21-8.83.05.18 2.31-1.04 2.5-1.17.78-.54 1.46-1.23 2-2 3.51-5.01-.08-11.84-3.95-15.47m-3.84 23.96c-.86.68-1.94 1.03-3.02 1.03 1.15-2.12 1.46-4.54 1.05-6.77.92.42 1.94.65 2.94.68.32.02.64 0 .95-.02.35 1.89-.39 3.93-1.91 5.08m6.5-15.1c.53 2.18.27 4.56-1.42 6.19a.5.5 0 0 0-.09-.23c-.2-.27-.67-.27-1.04 0-.37.28-.5.72-.3 1 .05.07.12.12.19.15-.75.42-1.6.67-2.5.71-1.88.08-4.02-.84-4.79-2.69-.88-2.1.17-4.64 1.56-6.26.99-1.12 2.47-2.14 4.02-2.29.21-.02.23-.32.03-.37q-.195-.045-.36-.06c-1.7-.06-3.32.68-4.61 1.78-1.52 1.32-2.65 3.3-2.84 5.34.04-.45-2.5-1.44-2.87-1.57-1.12-.4-2.31-.62-3.49-.6-3.07.03-6.24 1.75-7.63 4.52-.13.26.2.5.41.3 1.86-1.87 4.39-3.08 7.01-3.09 4.76-.02 8.74 4.17 8.18 8.96a7.8 7.8 0 0 1-1.4 3.69l-.01.02c-1.13 2.24-4.33 3.38-6.66 3.33-3.39-.07-6.62-2.47-8.67-5.01a15.7 15.7 0 0 1-3.42-8.97c-.13-2.38.33-4.67 1.26-6.86 2.3-5.45 7.87-9.17 13.76-9.35 6.42-.19 12.54 3.76 15.08 9.66.07.17.14.34.21.52.01.03.02.06.04.09.13.36.25.72.34 1.09m-11.68 6.66c-.04-.06-.07-.13-.1-.2z" style="fill:#102133;stroke-width:0"/><path d="M12.21 17.49c.71-2.82 3.67-5.38 6.26-6.53 2.8-1.3 6.34-1.41 9 .25-2.9-.78-5.86-.49-8.56.74-2.46 1.11-5.29 3.2-6.7 5.54m14.18 15.54c-.21 2.45-2.63 4.37-5.04 4.32-.81 0-1.61-.2-2.27-.62 1.49.12 2.92-.07 4.23-.73s2.31-1.7 3.09-2.97m4.91 1.28c-.1.05-.2.1-.31.14-.03.2-.09.39-.17.58 1.17-.27 2.19-1.26 2.29-2.47-.46.75-1.04 1.36-1.82 1.75m.12-8.46c-1.38-1.63-1.35-4.12.17-5.66.48-.49 1.07-.87 1.7-1.07-.51.43-.96.89-1.32 1.39-1.2 1.63-1.17 3.47-.55 5.34" style="stroke-width:0;fill:#f2f2f2"/><path style="stroke-width:0;fill:none" d="M0 0h48v48H0z"/></svg>